<svg width="48" height="48" viewBox="0 0 48 48" fill="none" xmlns="http://www.w3.org/2000/svg">
<g clip-path="url(#clip0_54722_164)">
<path d="M33.25 27.7V17.9875C33.25 16.1964 31.8036 14.75 30.0125 14.75H17.9875C16.1964 14.75 14.75 16.1964 14.75 17.9875V30.0125C14.75 31.8036 16.1964 33.25 17.9875 33.25H27.7L33.25 27.7ZM17.9875 31.4C17.2223 31.4 16.6 30.7777 16.6 30.0125V17.9875C16.6 17.2223 17.2223 16.6 17.9875 16.6H30.0125C30.7777 16.6 31.4 17.2223 31.4 17.9875V26.775H30.0125C28.2214 26.775 26.775 28.2214 26.775 30.0125V31.4H17.9875ZM21.9314 21.9482C21.6875 21.0905 20.7961 20.5859 19.9384 20.8298C19.0807 21.0736 18.5761 21.965 18.82 22.8311C18.8873 23.0666 19.005 23.2768 19.1564 23.4534L21.965 22.663C22.007 22.4275 21.9986 22.1836 21.9314 21.9482ZM27.7168 20.3168C27.4814 19.4591 26.5816 18.9545 25.7239 19.1984C24.8661 19.4423 24.3616 20.3336 24.6055 21.1998C24.6727 21.4352 24.7905 21.6455 24.9418 21.822L27.7505 21.0316C27.7925 20.7961 27.7841 20.5523 27.7168 20.3168ZM28.5409 23.2095L19.6273 25.7239C20.8298 27.3132 22.9152 28.0868 24.9418 27.515C26.9684 26.9432 28.3391 25.1857 28.5409 23.2095Z" fill="#1D192B"/>
</g>
<defs>
<clipPath id="clip0_54722_164">
<rect x="4" y="4" width="40" height="40" rx="20" fill="white"/>
</clipPath>
</defs>
</svg>
